<?xml version="1.0" encoding="UTF-8"?>
<svg width="24px" height="24px" viewBox="0 0 24 24" version="1.1" xmlns="http://www.w3.org/2000/svg" xmlns:xlink="http://www.w3.org/1999/xlink">
    <title>umap</title>
    <g id="Header" stroke="none" stroke-width="1" fill="none" fill-rule="evenodd">
        <g id="umap" transform="translate(0, 0)" fill="#828085" fill-rule="nonzero">
            <path d="M21.0022621,0 C21.8055829,0 22.5580606,0.313220339 23.1254694,0.880677966 C23.6908445,1.44813559 24.0020043,2.20067797 24,3.0020339 L23.9938695,11.4122034 L23.9938695,12.5898305 L23.9898019,16.3871186 C23.9898019,17.0298305 23.7762611,17.6664407 23.3918872,18.1789831 C23.3085046,18.2928814 23.2149533,18.4027119 23.1112334,18.5044068 L18.4967149,23.1213559 C17.9272723,23.6867797 17.1747946,23.9979661 16.3755413,23.9979661 L2.9997421,23.9979661 L2.9997421,24 C1.34632493,24 0,22.6555932 0,21.0020339 L0,6.98440678 C0,6.18305085 0.311159689,5.43050847 0.878568535,4.86305085 L4.86466652,0.878644068 C5.42597419,0.313220339 6.18048559,0 6.98380636,0 L21.0022621,0 Z M11.099991,19.4887906 L7.89999357,19.4887906 L7.89999357,20.7091296 L11.099991,20.7091296 L11.099991,19.4887906 Z M15.0999877,19.4887906 L11.8999903,19.4887906 L11.8999903,20.7091296 L15.0999877,20.7091296 L15.0999877,19.4887906 Z M18.0999853,19.4887906 L15.8999871,19.4887906 L15.8999871,20.7091296 L18.0999853,20.7091296 L18.0999853,19.4887906 Z M17.7479856,4.38305085 C17.5999857,4.23254237 17.3579859,4.23254237 17.209986,4.38305085 L14.3919883,7.24881356 L14.3859883,7.25694915 L9.92799192,11.7905085 L8.92799274,12.8074576 L8.25199329,13.4949153 L5.6539954,16.1369492 C5.60599544,16.1857627 5.57599546,16.2467797 5.56399547,16.3159322 L4.47199636,19.3586441 C4.43399639,19.4664407 4.45399638,19.5722034 4.50799633,19.6555932 C4.51999632,19.6718644 4.53399631,19.6881356 4.5479963,19.7023729 C4.62999623,19.7877966 4.75799613,19.8284746 4.88799602,19.779661 L7.87999359,18.6691525 C7.94399354,18.6589831 8.00599349,18.6264407 8.05199345,18.5776271 L10.9819911,15.6 L12.6239897,13.9322034 L12.6279897,13.9281356 L16.7959863,9.69152542 L17.3899859,9.08542373 L19.613984,6.82372881 C19.7619839,6.67322034 19.7619839,6.42711864 19.613984,6.27661017 L19.609984,6.27864407 L17.7479856,4.38305085 Z"></path>
        </g>
    </g>
</svg>