<?xml version="1.0" encoding="UTF-8"?>
<svg width="83px" height="50px" viewBox="0 0 83 50" version="1.1" xmlns="http://www.w3.org/2000/svg" xmlns:xlink="http://www.w3.org/1999/xlink">
    <title>hot-logo-icon</title>
    <g id="Page-1" stroke="none" stroke-width="1" fill="none" fill-rule="evenodd">
        <g id="hot-logo-icon" fill="#2C3039">
            <path d="M38,21.8833812 C38,21.4098617 38.1024042,20.9872163 38.3072125,20.6224889 C38.5104332,20.2561962 38.7803357,19.9579963 39.1153323,19.7200626 C39.4487412,19.4829116 39.8242232,19.3028959 40.2417782,19.181581 C40.6577455,19.0610488 41.0768882,19 41.5,19 C41.9215242,19 42.3422545,19.0610488 42.7598095,19.181581 C43.174983,19.3028959 43.550465,19.4829116 43.8838739,19.7200626 C44.2196643,19.9579963 44.488773,20.2561962 44.6935813,20.6224889 C44.8983897,20.9872163 45,21.4098617 45,21.8833812 L45,28.1174015 C45,28.6010957 44.8983897,29.0253065 44.6935813,29.3845552 C44.488773,29.7453692 44.2196643,30.0420037 43.8838739,30.2799374 C43.550465,30.5186538 43.174983,30.6994521 42.7598095,30.8192017 C42.3422545,30.9397339 41.9215242,31 41.5,31 C41.0768882,31 40.6577455,30.9397339 40.2417782,30.8192017 C39.8242232,30.6994521 39.4487412,30.5186538 39.1153323,30.2799374 C38.7803357,30.0420037 38.5104332,29.7453692 38.3072125,29.3845552 C38.1024042,29.0253065 38,28.6010957 38,28.1174015 L38,21.8833812 Z M40.0091858,28.1205322 C40.0091858,28.5267415 40.2386029,28.8296374 40.519619,29.0221758 C40.7990474,29.2162797 41.1300748,29.3188103 41.5119075,29.3188103 C41.8921524,29.3188103 42.2247675,29.2162797 42.5049898,29.0221758 C42.7836244,28.8296374 42.9431844,28.5267415 42.9431844,28.1205322 L42.9431844,21.8865119 C42.9431844,21.4787373 42.7836244,21.1766241 42.5049898,20.9840856 C42.2247675,20.7907644 41.8921524,20.6608401 41.5119075,20.6608401 C41.1300748,20.6608401 40.7990474,20.7907644 40.519619,20.9840856 C40.2386029,21.1766241 40.0091858,21.4787373 40.0091858,21.8865119 L40.0091858,28.1205322 Z" id="Shape"></path>
            <polygon id="Path" points="34.0709621 19 34.0709621 24.0549451 30.7929183 24.0549451 30.7929183 19 29 19 29 31 30.7929183 31 30.7929183 25.9431013 34.0709621 25.9431013 34.0709621 31 36 31 36 19"></polygon>
            <polygon id="Path" points="54 19 47 19 47 20.7650794 49.587152 20.7650794 49.5571734 31 51.4178444 31 51.4178444 20.7650794 54 20.7650794"></polygon>
            <path d="M68.1498509,29.965 L83,29.965 L74.1207442,19.9666667 L65.2806554,9.96833333 L56.4389,0 L12.0201207,0 L20.8602094,9.96833333 L5.97672667,9.96833333 L14.8184821,19.9666667 L14.8868161,20.0341667 L0,20.0341667 L8.87675579,30.0325 L17.7218446,40.0308333 L26.5627667,50 L70.981546,50 L62.1364572,40.0308333 L62.0714565,39.9333333 L76.9574393,39.9333333 L68.1498509,29.965 Z M41.4995833,41.6133333 C31.5819838,41.6133333 23.5427364,34.175 23.5427364,25.0008333 C23.5427364,15.8233333 31.5819838,8.385 41.4995833,8.385 C51.4180162,8.385 59.458097,15.8233333 59.458097,25.0008333 C59.458097,34.175 51.4180162,41.6133333 41.4995833,41.6133333 Z" id="Shape"></path>
        </g>
    </g>
</svg>