<?xml version="1.0" encoding="UTF-8"?>
<svg width="66px" height="66px" viewBox="0 0 66 66" version="1.1" xmlns="http://www.w3.org/2000/svg" xmlns:xlink="http://www.w3.org/1999/xlink">
    <title>Group</title>
    <g id="Header" stroke="none" stroke-width="1" fill="none" fill-rule="evenodd">
        <g id="Group">
            <g id="umap" transform="translate(15, 15)" fill="#828085" fill-rule="nonzero">
                <path d="M31.5033805,0 C32.7083612,0 33.8370774,0.469830508 34.6881902,1.32101695 C35.5362525,2.17220339 36.002992,3.30101695 35.999971,4.50305085 L35.9907898,17.1183051 L35.9907898,18.8847458 L35.9846884,24.580678 C35.9846884,25.5447458 35.6643773,26.499661 35.0878167,27.2684746 C34.9627429,27.439322 34.822416,27.6040678 34.6668362,27.7566102 L27.7450612,34.6820339 C26.8908977,35.5301695 25.7621816,35.9969492 24.5633021,35.9969492 L4.49961135,35.9969492 L4.49961135,36 C2.01948659,36 0,33.9833898 0,31.5030508 L0,10.4766102 C0,9.27457627 0.466739346,8.14576271 1.31785227,7.29457627 L7.29699686,1.3179661 C8.13895801,0.469830508 9.27072467,0 10.4757053,0 L31.5033805,0 Z M16.6499798,29.2331859 L11.8499856,29.2331859 L11.8499856,31.0636943 L16.6499798,31.0636943 L16.6499798,29.2331859 Z M22.6499725,29.2331859 L17.8499783,29.2331859 L17.8499783,31.0636943 L22.6499725,31.0636943 L22.6499725,29.2331859 Z M27.149967,29.2331859 L23.849971,29.2331859 L23.849971,31.0636943 L27.149967,31.0636943 L27.149967,29.2331859 Z M26.6219677,6.57457627 C26.3999679,6.34881356 26.0369684,6.34881356 25.8149686,6.57457627 L21.5879738,10.8732203 L21.5789738,10.8854237 L14.8919819,17.6857627 L13.3919837,19.2111864 L12.377985,20.2423729 L8.4809897,24.2054237 C8.40898979,24.2786441 8.36398984,24.3701695 8.34598986,24.4738983 L6.70799185,29.0379661 C6.65099192,29.199661 6.68099189,29.3583051 6.76199179,29.4833898 C6.77999177,29.5077966 6.80099174,29.5322034 6.82199171,29.5535593 C6.94499157,29.6816949 7.13699133,29.7427119 7.3319911,29.6694915 L11.8199856,28.0037288 C11.9159855,27.9884746 12.0089854,27.939661 12.0779853,27.8664407 L16.47298,23.4 L18.935977,20.8983051 L18.941977,20.8922034 L25.1939694,14.5372881 L26.0849683,13.6281356 L29.4209643,10.2355932 C29.642964,10.0098305 29.642964,9.64067797 29.4209643,9.41491525 L29.4149643,9.4179661 L26.6219677,6.57457627 Z"></path>
            </g>
            <circle id="Oval" cx="33" cy="33" r="33"></circle>
        </g>
    </g>
</svg>