<?xml version="1.0" encoding="UTF-8"?>
<svg width="47px" height="47px" viewBox="0 0 47 47" version="1.1" xmlns="http://www.w3.org/2000/svg" xmlns:xlink="http://www.w3.org/1999/xlink">
    <title>umap</title>
    <g id="Header" stroke="none" stroke-width="1" fill="none" fill-rule="evenodd">
        <g id="umap" transform="translate(0, 0)" fill="#2C3038" fill-rule="nonzero">
            <path d="M41.12943,0 C42.7025998,0 44.1762021,0.613389831 45.2873775,1.72466102 C46.3945705,2.8359322 47.003925,4.30966102 46.999981,5.87898305 L46.9879944,22.3488983 L46.9879944,24.6550847 L46.9800287,32.0914407 C46.9800287,33.3500847 46.5618446,34.5967797 45.8091124,35.6005085 C45.6458216,35.8235593 45.4626169,36.0386441 45.2594987,36.2377966 L36.2227333,45.279322 C35.1075749,46.3866102 33.6339728,46.9960169 32.0687684,46.9960169 L5.87449494,46.9960169 L5.87449494,47 C2.63655299,47 0,44.3672034 0,41.1289831 L0,13.6777966 C0,12.1084746 0.609354391,10.6347458 1.72053005,9.52347458 L9.52663861,1.72067797 C10.6258661,0.613389831 12.103451,0 13.6766208,0 L41.12943,0 Z M21.7374823,38.1655483 L15.4708207,38.1655483 L15.4708207,40.5553787 L21.7374823,40.5553787 L21.7374823,38.1655483 Z M29.5708093,38.1655483 L23.3041477,38.1655483 L23.3041477,40.5553787 L29.5708093,40.5553787 L29.5708093,38.1655483 Z M35.4458045,38.1655483 L31.1374747,38.1655483 L31.1374747,40.5553787 L35.4458045,40.5553787 L35.4458045,38.1655483 Z M34.7564717,8.58347458 C34.4666386,8.28872881 33.9927223,8.28872881 33.7028892,8.58347458 L28.1843104,14.1955932 L28.1725604,14.2115254 L19.4423175,23.0897458 L17.4839858,25.0812712 L16.1601535,26.4275424 L11.0724077,31.6015254 C10.9784077,31.6971186 10.9196578,31.8166102 10.8961578,31.9520339 L8.75765954,37.910678 C8.68324294,38.1217797 8.72240957,38.3288983 8.82815948,38.4922034 C8.85165947,38.5240678 8.87907611,38.5559322 8.90649275,38.5838136 C9.06707596,38.7511017 9.31774242,38.8307627 9.57232555,38.7351695 L15.4316541,36.5604237 C15.5569873,36.5405085 15.6784039,36.4767797 15.7684872,36.3811864 L21.5063992,30.55 L24.7219799,27.2838983 L24.7298132,27.2759322 L32.8921399,18.9792373 L34.055389,17.7922881 L38.4107187,13.3631356 C38.7005518,13.0683898 38.7005518,12.5864407 38.4107187,12.2916949 L38.4028854,12.295678 L34.7564717,8.58347458 Z"></path>
        </g>
    </g>
</svg>