<?xml version="1.0" encoding="UTF-8"?>
<svg width="120px" height="119px" viewBox="0 0 120 119" version="1.1" xmlns="http://www.w3.org/2000/svg" xmlns:xlink="http://www.w3.org/1999/xlink">
    <title>umap</title>
    <g id="Symbols" stroke="none" stroke-width="1" fill="none" fill-rule="evenodd">
        <path d="M105.011396,0.64 C109.028003,0.64 112.790395,2.18 115.627441,4.97 C118.454319,7.76 120.010119,11.46 120,15.4 L119.969445,56.75 L119.969445,62.54 L119.949107,81.21 C119.949107,84.37 118.881402,87.5 116.959531,90.02 C116.542618,90.58 116.074861,91.12 115.556261,91.62 L92.4836496,114.32 C89.6364345,117.1 85.874043,118.63 81.8777732,118.63 L14.9987227,118.63 L14.9987227,118.64 C6.73163013,118.64 0,112.03 0,103.9 L0,34.98 C0,31.04 1.55579971,27.34 4.39284625,24.55 L24.3233524,4.96 C27.129893,2.18 30.9024531,0.64 34.9190602,0.64 L105.011396,0.64 Z M55.5,96.4598872 L39.5,96.4598872 L39.5,102.459887 L55.5,102.459887 L55.5,96.4598872 Z M75.5,96.4598872 L59.5,96.4598872 L59.5,102.459887 L75.5,102.459887 L75.5,96.4598872 Z M90.5,96.4598872 L79.5,96.4598872 L79.5,102.459887 L90.5,102.459887 L90.5,96.4598872 Z M88.74,22.19 C88,21.45 86.79,21.45 86.05,22.19 L71.96,36.28 L71.93,36.32 L49.64,58.61 L44.64,63.61 L41.26,66.99 L28.27,79.98 C28.03,80.22 27.88,80.52 27.82,80.86 L22.36,95.82 C22.17,96.35 22.27,96.87 22.54,97.28 C22.6,97.36 22.67,97.44 22.74,97.51 C23.15,97.93 23.79,98.13 24.44,97.89 L39.4,92.43 C39.72,92.38 40.03,92.22 40.26,91.98 L54.91,77.34 L63.12,69.14 L63.14,69.12 L83.98,48.29 L86.95,45.31 L98.07,34.19 C98.81,33.45 98.81,32.24 98.07,31.5 L98.05,31.51 Z" id="umap" fill="#000000"></path>
    </g>
</svg>