<?xml version="1.0" encoding="UTF-8"?>
<svg width="128px" height="128px" viewBox="0 0 128 128" version="1.1" xmlns="http://www.w3.org/2000/svg" xmlns:xlink="http://www.w3.org/1999/xlink">
    <title>Group</title>
    <g id="Header" stroke="none" stroke-width="1" fill="none" fill-rule="evenodd">
        <g id="Group">
            <path d="M128,64 C128,99.346224 99.346224,128 64,128 C28.653776,128 0,99.346224 0,64 C0,28.653776 28.653776,0 64,0 C99.346224,0 128,28.653776 128,64 Z" id="Path" fill="#C53639"></path>
            <circle id="Oval" stroke="#FEECEF" stroke-width="8.112" cx="64.145" cy="63.7676" r="35.6928"></circle>
            <path d="M63.638,41.3582 C53.0924,41.3582 44.372,48.7604 42.0398,58.5962 L52.5854,58.5962 C54.9688845,53.3960508 60.6527144,50.5582627 66.2415108,51.7780598 C71.8303071,52.997857 75.8148341,57.9458373 75.8148341,63.6662 C75.8148341,69.3865627 71.8303071,74.334543 66.2415108,75.5543402 C60.6527144,76.7741373 54.9688845,73.9363492 52.5854,68.7362 L42.0398,68.7362 C44.7388529,80.0075965 55.6523574,87.3077162 67.1004791,85.4994638 C78.5486007,83.6912115 86.6808025,73.3827867 85.774453,61.8282293 C84.8681035,50.2736718 75.2280503,41.3593182 63.638,41.3582 L63.638,41.3582 Z" id="Path" fill="#FFFFFF"></path>
        </g>
    </g>
</svg>