<?xml version="1.0" encoding="UTF-8"?>
<svg width="128px" height="128px" viewBox="0 0 128 128" version="1.1" xmlns="http://www.w3.org/2000/svg" xmlns:xlink="http://www.w3.org/1999/xlink">
    <title>Group</title>
    <g id="Header" stroke="none" stroke-width="1" fill="none" fill-rule="evenodd">
        <g id="Group">
            <path d="M128,64 C128,99.346224 99.346224,128 64,128 C28.653776,128 0,99.346224 0,64 C0,28.653776 28.653776,1.42108547e-14 64,1.42108547e-14 C99.346224,1.42108547e-14 128,28.653776 128,64 Z" id="Path" fill="#C53639"></path>
            <g fill="#FFFFFF" fill-rule="nonzero" id="Shape">
                <path d="M83.5,20.399458 C75.6721716,20.3529757 68.1359969,23.3674456 62.5,28.8 C52.4577335,39.2412983 51.483068,55.4292212 60.2,67 L52.2,74.6 L57.6,79.8 L65.2,72.3 C78.2,81.4 94.2,79.9 104.6,69.8 C110.181025,64.461211 113.3376,57.0733738 113.3376,49.35 C113.3376,41.6266262 110.181025,34.238789 104.6,28.9 C98.9640031,23.4674456 91.4278284,20.4529757 83.6,20.5 L83.5,20.399458 Z M83.5,25.1995483 C90.0231903,25.1608131 96.3033359,27.6728713 101,32.2 C105.620081,36.6487256 108.230516,42.786241 108.230516,49.2 C108.230516,55.613759 105.620081,61.7512744 101,66.2 C91.2361373,75.6232435 75.7638627,75.6232435 66,66.2 C61.3799194,61.7512744 58.7694838,55.613759 58.7694838,49.2 C58.7694838,42.786241 61.3799194,36.6487256 66,32.2 C70.6966641,27.6728713 76.9768097,25.1608131 83.5,25.1995483 Z M44,75.6 L20.3,98.6 C18.3,100.5 18.3,103.6 20.3,105.4 L25.7,110.7 C27.6442176,112.605714 30.7557824,112.605714 32.7,110.7 L56.5,87.7 C58.5,85.8 58.5,82.7 56.5,80.9 L51.1,75.6 C49.0985777,73.839933 46.1014223,73.839933 44.1,75.6 L44,75.6 Z"></path>
            </g>
            <path d="M54.8,91.8 L40.8,105.4 L60.3,100.9 L61.8,94.4 C58.8,94.3 57,93.3 54.8,91.8 Z M75.8,84.3 C75.1,92.7 71.4,93.3 64.3,94.5 L62.8,100.8 L81,105.3 L85.4,86.7 L75.8,84.3 L75.8,84.3 Z M67.1,82.3 L64.8,92.4 C73.1,91.1 73.3,88.4 73.6,83.7 L67,82.2 L67.1,82.3 Z M64.7,82.1 C62.7,82.2 61.7,82.5 59.4,83.1 C60.1,84.4 60.4,87.1 56.4,90.3 C58.5,91.6 60.4,92.1 62.2,92.3 C63.9,84.6 64.8,83.3 64.7,82.1 Z M24.9,82 L21.3,95.7 L33.3,84.1 L25,82 L24.9,82 Z M108.3,81.5 C101.524045,83.1968685 94.75728,84.9302269 88,86.7 L83.5,105.4 L103.4,100.6 L108.3,81.5 Z M75.8,78.6 L75.8,81.7 C80,82.7 84.2,83.7 85,83.7 L84,79.7 C80.4,79.7 79.2,79.5 75.8,78.7 L75.8,78.6 Z M65.8,74 L67.2,79.7 L73.6,81.2 L73.6,78 C70.8,77 68.2,75.7 65.7,74 L65.8,74 Z M23,72.2 L25,79.5 L35.5,82 L36,81.5 C28.7,78.8 28.6,73.4 23.1,72.2 L23,72.2 Z M106,70.6 C100.645986,75.6912525 93.7508404,78.8573905 86.4,79.6 L87.5,83.7 C87.6,84 94.5,82.5 108.2,79 L106,70.6 Z M58.3,66.9 C57.3,65.6 56.6,64.3 55.9,62.9 C50.5,64.2 41.7,66.2 41.5,66.5 C41.925908,69.1286943 42.4934002,71.7324822 43.2,74.3 C45.294269,72.1994902 48.609115,71.944502 51,73.7 M58.5,80.9 C60.4,80.3 62.9,79.9 64.5,79.6 C64.3755674,78.2656324 64.0728734,76.9539582 63.6,75.7 M20.5,61.4 L22.5,69.1 C32.3,72.8 33,80.3 38.3,79.3 L41.7,76 C41.0313526,72.8480191 40.1629334,69.7417504 39.1,66.7 L20.5,61.4 L20.5,61.4 Z M53,44.7 L46.4,46.4 L42,63.8 C47.4,62.3 48.9,62 55,60.8 C52.8,55.6 52.1,50.1 53,44.8 L53,44.7 Z M25,40.6 L20.3,58.8 C27.5,60.8 31.7,62 38.9,63.7 C40.5,59 42.2,53.7 43.5,46.2 L25,40.6 Z M60,19.9 L41.8,24.4 C44.4,35.4 46.2,43.4 46.4,43.5 L53.4,42.1 C55.1,35.2 56.6,32.9 61.8,27.7 L60,19.9 Z M62.4,19.7 L63.8,25.8 C65.9,24.1 68.2,22.8 70.6,21.7 L62.4,19.7 Z M20,19.7 L24.7,37.9 C30.9458959,39.7715423 37.2129716,41.5716598 43.5,43.3 L39.3,24.3 L20,19.7 Z M103.3,19.5 L96,21.3 C99.4,22.7 102.6,24.7 105.4,27.3 L103.3,19.5 Z M63,53.5 C64.6,63.5 75.5,71 86.9,69.7 C91.1,59.7 94.1,60.2 95.7,50.2 C95.7,41.2 84.1,46.8 78.7,47.1 C69.6,46.8 70,36 69,34.4 C66.2,36.4 61.3,43 63,53.6 L63,53.5 Z M73.4,31 C76.4,40.4 77.1,43.6 86.6,40 C93.7,37.8 99.4,40.7 100.4,44 C101.9,49 99.4,56.5 92.8,68 C102.520294,62.8576819 106.825589,51.233386 102.8,41 C100.392106,35.6236923 95.8557746,31.4916927 90.2786675,29.5947175 C84.7015605,27.6977424 78.5866179,28.2068596 73.4,31 Z" id="Shape" fill="#FEECEF" fill-rule="nonzero"></path>
        </g>
    </g>
</svg>