<?xml version="1.0" encoding="UTF-8"?>
<svg xmlns="http://www.w3.org/2000/svg" xmlns:xlink="http://www.w3.org/1999/xlink" width="24" height="24" viewBox="0 0 24 24">
<path fill-rule="nonzero" fill="rgb(0%, 0%, 0%)" fill-opacity="1" d="M 12 5.144531 L 4 9.714844 L 4 12 L 5.714844 11.257812 L 5.714844 20 L 7.429688 20 L 7.429688 10.511719 L 12 8.570312 L 16.570312 10.511719 L 16.570312 20 L 18.285156 20 L 18.285156 11.257812 L 20 12 L 20 9.714844 Z M 10.285156 10.855469 C 9.632812 10.855469 8.570312 12.328125 8.570312 14.285156 C 8.570312 16.246094 9.714844 16.570312 9.714844 16.570312 L 9.714844 20 L 10.855469 20 L 10.855469 16.570312 C 10.855469 16.570312 12 16.246094 12 14.285156 C 12 12.328125 10.9375 10.855469 10.285156 10.855469 Z M 13.144531 10.855469 L 13.144531 20 L 14.285156 20 L 14.285156 16.570312 L 15.429688 16.570312 L 15.429688 15.429688 C 15.429688 13.144531 14.285156 10.855469 13.144531 10.855469 Z M 13.144531 10.855469 "/>
</svg>